PathFileType        4      (X/Y/Z)      C:\Users\cpontonn\Documents\TRAVAIL - COURS\DIGISPORT\Partage Nico\Partage Nico DIGISPORT\TP OPENSIM - eleves - work\DATA\transformed_Marche0007.trc         
DataRate	CameraRate	NumFrames	NumMarkers	Units	OrigDataRate	OrigDataStartFrame	OrigNumFrames
100.0	100.0	7	38	mm	100.0	259	414
Frame#	Time	LFHD			LBHD			RFHD			RBHD			C7			T10			CLAV			STRN			LSHO			LRAD			LHUM			LWRB			LWRA			LCAR			RSHO			RRAD			RHUM			RWRB			RWRA			RCAR			LFWT			LBWT			RFWT			RBWT			LKNE			LKNI			LANE			LHEE			LANI			LTAR			LTOE			RKNE			RKNI			RANE			RHEE			RANI			RTAR			RTOE			
		X1	Y1	Z1	X2	Y2	Z2	X3	Y3	Z3	X4	Y4	Z4	X5	Y5	Z5	X6	Y6	Z6	X7	Y7	Z7	X8	Y8	Z8	X9	Y9	Z9	X10	Y10	Z10	X11	Y11	Z11	X12	Y12	Z12	X13	Y13	Z13	X14	Y14	Z14	X15	Y15	Z15	X16	Y16	Z16	X17	Y17	Z17	X18	Y18	Z18	X19	Y19	Z19	X20	Y20	Z20	X21	Y21	Z21	X22	Y22	Z22	X23	Y23	Z23	X24	Y24	Z24	X25	Y25	Z25	X26	Y26	Z26	X27	Y27	Z27	X28	Y28	Z28	X29	Y29	Z29	X30	Y30	Z30	X31	Y31	Z31	X32	Y32	Z32	X33	Y33	Z33	X34	Y34	Z34	X35	Y35	Z35	X36	Y36	Z36	X37	Y37	Z37	X38	Y38	Z38	
259	2.58	777.51959	1703.20935	272.5491300000002	628.48022	1728.43628	272.12723000000017	776.76563	1696.4043	407.0644200000002	615.65723	1717.08167	397.5015300000002	523.53973	1607.45789	342.42102000000017	414.1934499999999	1396.67041	325.3286100000002	632.16827	1506.91711	334.52734000000015	641.24219	1328.06116	323.1109600000001	569.40509	1577.46313	137.00443000000016	409.9292	1244.9563	74.17491000000012	385.79422	1263.92737	130.25656000000015	386.315	988.97375	57.108840000000114	406.09052	979.10162	130.8519600000001	398.45059	897.71027	81.8329200000001	564.8203099999998	1541.78845	527.2706300000002	494.30852999999996	1171.93787	613.8356900000002	464.06710999999996	1173.9176	557.2261400000001	693.5371699999998	997.302	606.6958000000002	728.8691999999999	1031.19751	552.5117200000002	771.9572099999999	961.58466	601.5151400000002	657.95129	1063.77515	222.89760000000015	459.98366999999996	1093.60645	272.0865500000001	651.86963	1057.25623	412.1440100000001	457.19256999999993	1095.16199	352.10410000000013	768.42975	589.91132	154.2390700000001	792.04205	562.93793	267.3676100000002	836.56433	137.74628	204.96625000000012	776.87158	45.30847999999999	266.5529500000001	845.38074	152.98729999999998	292.1970200000001	1005.04956	103.52220999999999	186.4580500000001	1054.93933	128.46943999999996	268.1300000000001	487.34237999999993	540.80194	445.1556700000001	478.8133199999999	502.86133	347.1898200000001	349.68386999999996	95.07431999999997	397.83902000000006	265.73565999999994	35.145339999999976	334.02756000000005	363.32042999999993	124.98498999999998	310.14185000000003	503.7354399999999	37.40331999999997	419.42984000000007	558.84399	40.11013999999998	331.4417700000001	
260	2.59	791.74561	1698.98047	272.2563500000002	642.83673	1724.93286	271.8932800000002	790.79047	1692.24817	406.85342000000026	629.92383	1713.78271	397.2467700000002	537.3739	1604.14099	341.8143000000002	427.89370999999994	1393.42773	324.3098100000002	646.0069	1503.59949	334.52475000000015	654.93439	1324.72681	323.3273900000001	584.17175	1574.0238	136.64125000000018	425.17477	1241.01758	74.22237000000013	400.33838	1260.67236	130.20383000000015	400.71713	985.3067	58.31183000000011	419.55038	975.82324	132.05910000000011	411.43628	894.13391	83.98671000000012	577.8676099999999	1538.65393	526.8669400000002	507.44884999999994	1168.95654	614.1997100000002	477.34246999999993	1170.68835	557.4036900000002	708.2623299999999	996.09875	607.5941800000003	743.3919099999999	1030.31348	553.4533100000002	787.0347899999999	961.16656	602.6247600000003	672.84125	1060.42163	223.71666000000013	474.3900499999999	1090.51538	271.68103000000013	665.27899	1054.30676	412.9429900000001	471.09389999999996	1092.42651	351.6882900000001	783.18549	586.05219	156.27798000000013	808.15082	559.90338	269.48251000000016	878.20013	137.06245	206.3174700000001	824.28131	41.85001999999999	268.3204000000001	885.77051	153.85421999999997	293.0335100000001	1047.9624	113.97947999999998	186.98428000000015	1095.96826	143.35463999999996	268.54822000000013	491.68474999999995	539.7323	445.1986100000001	482.85335999999995	502.09604	347.22079000000014	350.0663799999999	95.37414999999997	397.42703000000006	265.86706999999996	35.474629999999976	333.86499000000003	363.85509999999994	125.04074999999999	309.60623000000004	503.81356999999997	37.304429999999975	419.41208000000006	559.05872	39.409219999999976	331.47305000000006	
261	2.6	806.15845	1694.5835	272.1287200000002	657.30103	1721.1637	271.53995000000015	805.13855	1688.08936	406.65881000000024	644.24762	1710.19019	396.8654500000002	551.30231	1600.53101	341.13162000000017	441.69347999999997	1389.93481	323.2866800000001	659.97906	1499.99524	334.4042400000002	668.75427	1321.12048	323.5110500000001	599.04816	1570.23242	136.13617000000016	440.32098	1236.95972	74.29679000000013	415.12537	1256.93164	130.09464000000014	415.65561	981.25018	59.466240000000106	433.56436	972.21844	133.1856800000001	425.0343	890.15588	86.07484000000011	591.0373499999998	1535.31335	526.4009400000002	520.5677499999999	1165.79431	614.4550800000002	490.66204999999997	1167.28687	557.5194100000002	722.6920199999998	994.40161	608.4977400000002	757.6384299999999	1028.79773	554.3829300000002	801.6988499999999	960.08337	603.8130500000002	687.88751	1056.90735	224.49966000000015	488.93270999999993	1086.94324	271.2181700000001	678.75305	1051.18225	413.7015700000001	485.04970999999995	1089.2002	351.1482200000001	797.93079	581.70844	158.60155000000012	824.62689	556.42828	271.98767000000015	918.33032	137.79527	206.4488500000001	870.29486	40.01150999999999	270.2751500000001	925.28046	155.75634999999997	293.8043800000001	1088.51477	124.79204999999999	186.23183000000014	1134.58899	157.78327999999996	266.9793400000001	496.9279199999999	538.61298	445.1322900000001	487.3043799999999	501.22928	347.0637200000001	350.46401999999995	95.72324999999996	396.89188000000007	266.02266999999995	35.79405999999998	333.63620000000003	364.40029999999996	125.05055999999999	309.00244000000004	503.8735699999999	37.203939999999974	419.35553000000004	559.24133	38.70818999999998	331.47510000000005	
262	2.61	821.17456	1691.57446	273.4488800000002	671.85529	1717.1377	271.07718000000017	819.38507	1683.49915	406.3867800000002	658.6463	1706.32129	396.40756000000016	565.4093	1596.62195	340.3079200000002	455.49270999999993	1386.19604	322.3153700000001	674.06128	1496.12134	334.2232700000002	682.61353	1317.21558	323.6219200000001	614.1814	1566.10266	135.59865000000016	455.64957	1232.54358	74.28011000000012	430.12909	1252.78979	129.82251000000014	431.03931	976.81091	60.608410000000106	448.09753	968.19641	134.2785300000001	439.21249	885.80481	88.07370000000012	604.3408799999999	1531.74573	525.8069500000003	533.6545399999999	1162.4635	614.6167000000003	503.95223999999996	1163.72559	557.5589600000002	736.7872299999999	992.19647	609.4189500000002	771.6896999999999	1026.69495	555.2568400000002	816.0081199999998	958.31171	604.9921300000002	703.16095	1053.1698	225.27190000000013	503.56048999999996	1083.02441	270.7298900000001	692.30682	1047.87317	414.57233000000014	499.04857999999996	1085.62354	350.54047000000014	812.70868	576.96417	161.23444000000015	841.08862	552.6123	274.5141300000002	955.08582	140.36774	206.8147000000001	914.44012	39.64774999999999	272.1471300000001	963.48767	158.38434999999998	294.2609900000001	1126.55579	135.38986	184.19806000000014	1172.55737	171.80330999999998	264.0098300000002	502.39867999999996	537.36279	445.0154400000001	492.32363999999995	500.23688	346.7919900000001	350.90453999999994	96.18338999999997	396.31567000000007	266.2169799999999	36.24977999999998	333.28882000000004	365.14962999999995	125.07958999999998	308.2705700000001	503.93798999999996	37.09230999999997	419.3209800000001	559.44885	38.01834999999998	331.4703400000001	
263	2.62	832.46802	1688.57288	270.27884000000023	686.49982	1712.82837	270.4386000000002	833.72461	1678.64551	405.9816600000002	673.08154	1702.18262	395.7530800000002	579.67206	1592.51184	339.4339600000002	469.3059999999999	1382.2627	321.2557400000001	688.21039	1491.9397	333.98904000000016	696.52197	1312.93225	323.7350200000002	629.32697	1562.03015	134.82336000000018	471.10806	1227.75964	74.10203000000013	445.27597	1248.30579	129.32698000000013	446.94266	971.98865	61.64277000000011	463.14014	963.85358	135.32892000000012	453.94287	881.1048	90.00193000000012	617.8214099999999	1527.92566	525.1778600000002	546.7500599999998	1158.89868	614.7580000000003	517.2642199999999	1160.00598	557.5489500000002	750.6256099999999	989.5199	610.3587600000002	785.5026899999999	1023.9942	556.1070600000003	829.9481799999999	955.90936	606.1516100000002	718.60046	1049.14233	226.14407000000014	518.42657	1078.66748	270.0338400000001	705.93646	1044.37463	415.4884000000002	513.14502	1081.62793	349.6903100000001	827.60626	572.02661	164.07265000000015	857.51453	548.71484	277.25699000000014	990.56879	143.06047	207.11856000000012	956.31348	40.36958999999999	273.75195000000014	1000.08746	161.44538999999997	294.6408700000001	1161.89783	145.77655	181.39359000000013	1207.78589	184.60200999999998	260.2030300000002	508.45009999999996	536.01123	444.9512000000001	498.12395999999995	499.12378	346.61664000000013	351.48830999999996	96.73430999999997	395.66672000000005	266.41421999999994	36.95678999999998	332.93912000000006	366.05556999999993	125.26228999999998	307.59521000000007	504.00933999999995	36.89770999999997	419.33493000000004	559.71033	37.33252999999998	331.51779000000005	
264	2.63	847.20569	1683.42297	269.8082300000002	701.31097	1708.31567	269.6551800000002	848.11676	1673.62244	405.4811100000002	687.59711	1697.79968	394.93179000000015	594.06024	1588.24963	338.5136400000002	483.25658999999996	1378.06604	320.1130700000001	702.43976	1487.44434	333.72894000000025	710.67181	1308.40906	323.81784000000016	644.94153	1556.89307	134.23892000000018	486.79205	1222.64844	73.83882000000013	460.72833	1243.42261	128.71880000000013	463.22971	966.81262	62.608510000000116	478.60925	959.15765	136.4810900000001	469.40436	876.11243	91.82941000000011	631.5096999999998	1523.91736	524.5684800000002	559.8325799999999	1155.21631	614.8609600000002	530.5740999999999	1156.11804	557.4474500000002	764.2165499999999	986.3772	611.3371000000002	799.1249399999999	1020.77258	556.9788200000003	843.5627399999998	952.88446	607.3533300000003	734.35461	1044.88013	227.14104000000015	533.7265	1074.1001	268.6764200000001	719.56927	1040.72083	416.57248000000016	527.37573	1077.38452	348.6535900000001	842.8512	566.89215	166.92409000000015	873.75464	544.66498	280.2285200000002	1025.38794	144.85884	208.71169000000012	995.62585	41.80608999999998	274.8700300000001	1034.79541	164.62917999999996	295.0274000000001	1194.76245	155.77254	178.29453000000015	1240.90198	196.26899999999998	256.14380000000017	515.00214	534.55322	444.9183000000001	504.80388999999997	497.83307	346.6119700000001	352.1568899999999	97.49885999999996	395.0366200000001	266.70797999999996	37.82002999999998	332.4559300000001	367.15163999999993	125.57629999999999	306.97360000000003	504.1051299999999	36.67565999999997	419.38928000000004	560.01526	36.66596999999998	331.55557000000005	
265	2.64	862.05371	1678.13672	269.2286400000002	716.24664	1703.56689	268.6952500000002	862.63312	1668.47546	404.88132000000024	702.2345	1693.26245	393.9754600000002	608.68762	1583.77795	337.55701000000016	497.37548999999996	1373.74109	318.8983500000001	716.79193	1482.77295	333.4189800000002	724.9447	1303.59912	323.8479300000002	660.51593	1551.96448	133.40894000000017	502.80984	1217.27002	73.42630000000013	476.44208	1238.35852	127.87392000000013	479.82748	961.30206	63.48875000000012	494.54352	954.16669	137.4846800000001	485.35922	870.76428	93.47039000000011	645.4633799999999	1519.70544	523.9023400000002	572.9323099999999	1151.32922	614.8950200000003	543.9186399999999	1152.09692	557.3546100000002	777.5592699999999	982.81146	612.3109700000002	812.5335699999999	1017.02112	557.8800700000003	856.9028899999998	949.27417	608.5195300000003	750.18695	1040.26611	228.34558000000015	548.97681	1069.21729	267.4813200000001	733.20245	1037.02661	417.7999300000002	541.69769	1073.09216	347.5495300000001	858.5766	561.83142	169.59509000000014	889.97522	540.51898	283.16794000000016	1057.11646	147.86644	209.06508000000014	1032.10657	43.739119999999986	275.7588800000001	1067.33228	167.81466999999998	295.4181200000001	1225.03442	164.69066	175.50180000000015	1271.70288	206.56452999999996	252.29590000000013	521.96301	533.14191	445.1295800000001	512.29523	496.39175	346.76224000000013	352.87850999999995	98.39747999999997	394.45740000000006	267.11654999999996	38.98916999999998	331.80295000000007	368.38707999999997	126.06990999999998	306.36807000000005	504.1961999999999	36.386089999999975	419.48917000000006	560.33185	35.97824999999998	331.65475000000004	
